<?xml version="1.0" encoding="UTF-8"?>
<svg version="1.1" xmlns="http://www.w3.org/2000/svg" width="512" height="512">
<path d="M0 0 C22.20583726 -0.12561505 44.41157668 -0.22718386 66.61771291 -0.28117472 C76.27493734 -0.30494623 85.93198161 -0.33649012 95.58909601 -0.38914496 C103.88117603 -0.43419064 112.17308642 -0.46156704 120.46529108 -0.46655977 C124.74499953 -0.46962621 129.02428559 -0.480872 133.30387872 -0.51360518 C137.25812498 -0.54357663 141.21170814 -0.55008408 145.16604406 -0.53834051 C146.60099064 -0.5381437 148.03596891 -0.54640449 149.47080714 -0.56403941 C156.76200722 -0.64885773 162.52893679 -0.63536664 168.59639639 3.70862383 C170.7947165 5.8814256 171.12851944 7.69756139 171.38642877 10.73295587 C171.49471002 11.89697931 171.60299127 13.06100275 171.71455377 14.26029962 C171.79189752 15.50940119 171.86924127 16.75850275 171.94892877 18.04545587 C172.06752252 19.26361994 172.18611627 20.481784 172.30830377 21.73686212 C175.38475702 56.77545169 170.31702068 92.67830179 163.94892877 127.04545587 C163.77748346 127.98711603 163.60603815 128.92877619 163.42939752 129.8989715 C160.49878666 145.56463526 160.49878666 145.56463526 155.82002252 149.95170587 C151.76287887 152.32331385 147.56950367 152.72779135 142.94892877 153.04545587 C141.81455377 153.12666681 140.68017877 153.20787775 139.51142877 153.29154962 C131.69461622 153.57439481 124.89642013 152.83722052 117.94892877 149.04545587 C114.18004446 145.3663069 112.92521572 142.11438969 112.58955377 136.93998712 C111.0762861 116.81772499 106.27816785 96.73193382 90.44502252 82.85014337 C67.78643105 65.50164393 39.09295996 63.50270335 11.61885065 63.76420587 C8.31990621 63.79549402 5.02144504 63.80521584 1.72236627 63.81108087 C-7.45659884 63.84508785 -16.6018976 63.9557971 -25.76200873 64.56108087 C-41.80852952 65.61806372 -57.97840984 65.12549288 -74.05107123 65.04545587 C-74.18465863 78.19425754 -74.31516098 91.34308641 -74.44222265 104.49195284 C-74.50137519 110.60436576 -74.5614068 116.71676677 -74.62382513 122.82914728 C-74.97770822 157.56898234 -75.1213193 192.3038387 -75.05107123 227.04545587 C-27.19485083 234.412351 -27.19485083 234.412351 17.94892877 221.04545587 C26.01601166 214.61392485 31.59406886 208.50578059 34.63642877 198.48295587 C34.85210504 197.78839288 35.06778131 197.0938299 35.28999323 196.37821954 C36.90716231 190.87129022 37.57042125 185.56426434 37.71064752 179.81498712 C37.97051695 176.79453757 38.51496397 174.71638711 39.94892877 172.04545587 C41.75361627 170.71733087 41.75361627 170.71733087 43.82392877 169.79545587 C44.50197565 169.48092462 45.18002252 169.16639337 45.87861627 168.84233087 C51.78414482 166.56925951 57.62805905 166.78853642 63.88642877 166.73295587 C64.97117487 166.70395197 66.05592096 166.67494806 67.17353815 166.64506525 C75.14055447 166.58140747 75.14055447 166.58140747 79.14033502 168.87748712 C82.61011702 173.03672904 82.23311162 177.70391005 82.44892877 182.87358087 C82.48926233 183.76083856 82.52959589 184.64809625 82.57115167 185.56224054 C82.70193623 188.47312105 82.82594869 191.3842358 82.94892877 194.29545587 C83.03662778 196.32670712 83.12435587 198.35795711 83.21211237 200.38920587 C83.42646284 205.39281408 83.63362436 210.39669469 83.83894342 215.40068048 C83.93487789 217.70757978 84.03465788 220.01424262 84.13740534 222.3208465 C85.56117749 254.701006 86.12142316 287.43640909 84.07392877 319.79545587 C83.99553766 321.05350031 83.91714655 322.31154474 83.83637995 323.60771173 C82.73764132 338.64347045 82.73764132 338.64347045 78.76142877 343.98295587 C73.8431064 347.58972561 69.26010074 347.21831915 63.44502252 346.40873712 C61.42355212 346.06984743 59.40400741 345.71929405 57.38642877 345.35795587 C56.37129205 345.19617853 55.35615534 345.03440119 54.3102569 344.8677215 C44.04304608 343.07716285 44.04304608 343.07716285 39.94892877 339.04545587 C38.13071867 335.60028777 36.81715582 332.02319709 35.51142877 328.35795587 C31.8366333 318.13333732 26.96509855 310.46041292 18.94892877 303.04545587 C18.02080377 302.11733087 17.09267877 301.18920587 16.13642877 300.23295587 C-9.06269949 279.11575983 -47.21191631 280.45679506 -78.05107123 279.04545587 C-78.03656927 279.78416925 -78.02206732 280.52288263 -78.00712591 281.28398126 C-77.88516471 293.04713948 -78.59475216 304.7455498 -79.30107123 316.48295587 C-79.39944281 318.14111826 -79.39944281 318.14111826 -79.4998017 319.83277887 C-81.28957283 349.78703457 -83.39407855 379.80357461 -87.18778998 409.58085626 C-88.74465492 421.43717962 -88.74465492 421.43717962 -84.05107123 432.04545587 C-65.12705668 451.00873186 -33.18924125 451.15325054 -8.14970404 451.23564142 C-6.59599286 451.23586817 -5.04228115 451.2349441 -3.48857123 451.23295587 C-2.68157782 451.23268396 -1.87458441 451.23241205 -1.04313666 451.2321319 C11.71957369 451.2126642 24.4522426 450.86394811 37.19892877 450.23295587 C38.34798197 450.18055246 38.34798197 450.18055246 39.52024835 450.12709039 C53.81162143 449.45580002 68.56623439 448.17220805 82.13642877 443.35795587 C82.8692608 443.10449396 83.60209284 442.85103204 84.3571319 442.58988947 C96.09522331 438.36184314 106.65536199 432.43273511 115.94892877 424.04545587 C116.65533502 423.42026056 117.36174127 422.79506525 118.08955377 422.15092462 C123.48119812 417.09883039 127.28802528 411.43476857 130.94892877 405.04545587 C131.47486627 404.15342462 132.00080377 403.26139337 132.54267877 402.34233087 C138.58840999 391.29961773 141.56567551 378.82001742 142.82392877 366.35795587 C143.53611948 360.87216257 144.75395296 357.32390848 148.80830377 353.46733087 C155.56072001 348.98214929 164.32825336 349.88123643 172.13642877 349.79545587 C172.97971735 349.7857879 173.82300592 349.77611994 174.6918487 349.766159 C187.03163314 349.83397997 187.03163314 349.83397997 191.64727777 353.33290094 C193.33179836 355.54918936 193.33667005 356.85028162 193.34956354 359.61820978 C193.35600382 360.53589136 193.36244409 361.45357294 193.36907953 362.39906305 C193.35546884 363.38838831 193.34185816 364.37771356 193.32783502 365.39701837 C193.31509294 366.94131021 193.31509294 366.94131021 193.30209345 368.51679987 C193.10602652 378.99137357 191.6335004 389.11115934 189.88642877 399.42045587 C189.40298783 402.3965757 188.92616603 405.37370847 188.44989008 408.35098261 C188.12009105 410.41156581 187.78834241 412.47183789 187.45468134 414.53179926 C186.23608242 422.09362528 185.12419903 429.66663158 184.06611627 437.25248712 C183.91383066 438.34186579 183.76154505 439.43124445 183.60464472 440.55363458 C183.01266189 444.80103857 182.4229403 449.04871096 181.84342951 453.29783624 C180.34802374 464.24313821 178.72311517 475.07295834 176.20266718 485.83651727 C175.17543084 490.34027107 174.85240537 494.3960644 174.94892877 499.04545587 C173.84013815 503.11102148 172.50995662 504.84418477 168.94892877 507.04545587 C166.0900268 507.71934503 166.0900268 507.71934503 162.75532526 508.13236994 C161.5033938 508.28806452 160.25146234 508.4437591 158.96159357 508.60417169 C157.6242812 508.75345559 156.28672119 508.90053696 154.94892877 509.04545587 C153.66172937 509.18753473 152.37452997 509.32961359 151.04832453 509.47599787 C122.08837818 512.50579319 93.11777913 512.44498967 64.03334039 512.3097381 C59.19218282 512.2907789 54.35106386 512.28663379 49.50987428 512.28289789 C24.4479802 512.26160424 -0.59903941 512.03153273 -25.65368658 511.42478937 C-38.12437605 511.12292722 -50.59311692 510.90313375 -63.06669623 510.76420587 C-63.91044239 510.75463609 -64.75418856 510.74506632 -65.62350279 510.73520654 C-72.36536883 510.65918284 -79.10728626 510.58834902 -85.84922796 510.51939386 C-150.71574209 509.85510476 -150.71574209 509.85510476 -177.67607123 507.67045587 C-178.50519018 507.60576105 -179.33430914 507.54106622 -180.18855292 507.47441095 C-193.86385898 506.40613694 -207.48140001 505.07852405 -221.05107123 503.04545587 C-221.90281927 502.92170587 -222.75456732 502.79795587 -223.63212591 502.67045587 C-226.04588842 502.3135499 -228.45497604 501.93557863 -230.86357123 501.54545587 C-231.55829535 501.43910822 -232.25301947 501.33276056 -232.96879584 501.22319025 C-236.66013786 500.57917088 -238.70161792 499.97643225 -241.05107123 497.04545587 C-243.84829288 489.36662207 -243.38458034 480.71274348 -243.36357123 472.67045587 C-243.37968451 471.41361994 -243.39579779 470.156784 -243.41239935 468.86186212 C-243.41304388 467.65658869 -243.41368841 466.45131525 -243.41435248 465.20951837 C-243.41733343 464.12106622 -243.42031439 463.03261408 -243.42338568 461.91117853 C-243.00184632 458.66656936 -242.30064587 457.37948331 -240.05107123 455.04545587 C-235.10175224 451.87042105 -231.13372155 450.79756204 -225.30107123 450.10795587 C-210.43362734 448.26343877 -199.4541042 441.12603732 -190.31278998 429.43217462 C-163.79411577 391.48085165 -164.83646937 336.5625078 -164.92607123 292.42045587 C-164.92775445 291.05160022 -164.92931966 289.68274441 -164.93077093 288.31388849 C-158.01177721 172.16278109 -158.01177721 172.16278109 -201.60966498 70.45903009 C-210.41723437 61.82152556 -221.04051254 56.54636671 -232.21513373 51.66264337 C-235.51006347 49.78371649 -236.97934473 48.22063155 -239.05107123 45.04545587 C-239.56864935 41.69560236 -239.56864935 41.69560236 -239.58232123 37.91654962 C-239.58614813 37.24503366 -239.58997504 36.5735177 -239.59391791 35.88165277 C-239.59662814 34.46887192 -239.58932911 33.05604014 -239.5725556 31.64335626 C-239.55109389 29.48523496 -239.57239881 27.3304288 -239.59794623 25.172409 C-239.59530344 23.79544856 -239.59017947 22.41849017 -239.58232123 21.04154962 C-239.57780951 19.79559015 -239.57329779 18.54963068 -239.56864935 17.26591486 C-239.05107123 14.04545587 -239.05107123 14.04545587 -237.49028021 11.70927423 C-234.30287495 9.53510079 -231.23435033 8.96668853 -227.49247748 8.42826837 C-226.74744467 8.30952356 -226.00241186 8.19077875 -225.23480231 8.06843561 C-217.325148 6.84912933 -209.37343076 5.96724056 -201.41215521 5.16508478 C-198.98565353 4.92016137 -196.56036591 4.66516405 -194.1350556 4.40873712 C-192.53290318 4.24278142 -190.93069139 4.07739767 -189.32841498 3.91264337 C-188.28547529 3.80325937 -188.28547529 3.80325937 -187.22146612 3.69166559 C-174.45384979 2.41755873 -161.6267317 1.86909919 -148.80497748 1.51811212 C-147.71337411 1.48748524 -147.71337411 1.48748524 -146.59971815 1.45623964 C-123.40146011 0.81788489 -100.19396457 0.66377718 -76.98857123 0.48295587 C-75.74441065 0.47320482 -74.50025007 0.46345377 -73.21838766 0.45340723 C-54.00369753 0.30471274 -34.78887959 0.18807847 -15.57389164 0.08585447 C-10.38258869 0.05820209 -5.19129306 0.02944853 0 0 Z " fill="#FF931E" transform="translate(281.05107122659683,-0.045455873012542725)"/>
</svg>
