<svg xmlns="http://www.w3.org/2000/svg"  viewBox="0 0 24 24" width="24px" height="24px" baseProfile="basic"><path fill="#5dad49" d="M20.17,17.77c-4.05,5.64-12.29,5.64-16.34,0c-2.45-3.41-2.45-8.13,0-11.55	c4.05-5.63,12.29-5.63,16.34,0.01C22.62,9.64,22.62,14.36,20.17,17.77z"/><path fill="#b8f2a9" d="M17.71,10l-4.89,5.22c-0.97,0.97-2.55,0.97-3.51,0l-2.72-2.51c-0.39-0.39-0.39-1.03,0-1.42	c0.39-0.39,1.02-0.39,1.41,0l2.57,2.36c0.27,0.27,0.71,0.27,0.99,0l4.73-5.06c0.39-0.39,1.03-0.39,1.42,0	C18.1,8.98,18.1,9.61,17.71,10z"/></svg>