<svg width="36" height="36" viewBox="0 0 36 36" fill="none" xmlns="http://www.w3.org/2000/svg">
  <path
    d="M17.531 3.5C15.737 3.5 14.281 4.956 14.281 6.75V15.493L11.919 13.488C10.407 12.204 8.139 12.295 6.735 13.699C5.222 15.212 5.293 17.685 6.888 19.108L14.624 26.011C15.813 27.071 17.351 27.655 18.944 27.655H23.02C27.151 27.655 30.5 24.306 30.5 20.175V14.563C30.5 12.989 29.224 11.713 27.65 11.713C26.855 11.713 26.136 12.039 25.62 12.565C25.192 11.433 24.098 10.628 22.816 10.628C21.711 10.628 20.747 11.227 20.223 12.118V6.75C20.223 4.956 18.768 3.5 16.973 3.5H17.531Z"
    fill="#FCE0C2"
    stroke="#231F20"
    stroke-width="1.8"
    stroke-linecap="round"
    stroke-linejoin="round"
  />
  <path
    d="M16.953 5.7V16.835"
    stroke="#F7B3AA"
    stroke-width="1.4"
    stroke-linecap="round"
  />
  <path
    d="M10.037 16.297L16.155 21.87C17.04 22.676 18.194 23.122 19.391 23.122H23.392"
    stroke="#F7B3AA"
    stroke-width="1.4"
    stroke-linecap="round"
    stroke-linejoin="round"
  />
  <path
    d="M20.207 12.38V16.336"
    stroke="#231F20"
    stroke-width="1.8"
    stroke-linecap="round"
  />
  <path
    d="M23.567 11.318V15.792"
    stroke="#231F20"
    stroke-width="1.8"
    stroke-linecap="round"
  />
  <path
    d="M26.824 12.42V16.352"
    stroke="#231F20"
    stroke-width="1.8"
    stroke-linecap="round"
  />
  <path
    d="M25.906 20.605C26.927 20.605 27.755 19.777 27.755 18.756C27.755 17.735 26.927 16.907 25.906 16.907C24.885 16.907 24.057 17.735 24.057 18.756C24.057 19.777 24.885 20.605 25.906 20.605Z"
    fill="#FFF9F1"
    opacity="0.95"
  />
  <path
    d="M26.963 24.185C27.532 24.185 27.994 23.724 27.994 23.155C27.994 22.585 27.532 22.124 26.963 22.124C26.394 22.124 25.933 22.585 25.933 23.155C25.933 23.724 26.394 24.185 26.963 24.185Z"
    fill="#FFF9F1"
    opacity="0.95"
  />
  <path
    d="M28.967 29.092C29.724 27.985 31.292 27.911 32.172 28.882C33.051 27.911 34.619 27.985 35.377 29.092C36.067 30.103 35.697 31.469 34.739 32.286L32.172 34.476L29.605 32.286C28.647 31.469 28.277 30.103 28.967 29.092Z"
    fill="#FF6D86"
  />
</svg>
